<svg width="22" height="23" viewBox="0 0 22 23" fill="none" xmlns="http://www.w3.org/2000/svg">
<path d="M20.1299 10.3632H12.4299V2.66322C12.4299 2.32286 12.2947 1.99643 12.054 1.75576C11.8133 1.51509 11.4869 1.37988 11.1466 1.37988C10.8062 1.37988 10.4798 1.51509 10.2391 1.75576C9.99842 1.99643 9.86322 2.32286 9.86322 2.66322V10.3632H2.16322C1.82286 10.3632 1.49643 10.4984 1.25576 10.7391C1.01509 10.9798 0.879883 11.3062 0.879883 11.6466C0.879883 11.9869 1.01509 12.3133 1.25576 12.554C1.49643 12.7947 1.82286 12.9299 2.16322 12.9299H9.86322V20.6299C9.86322 20.9702 9.99842 21.2967 10.2391 21.5373C10.4798 21.778 10.8062 21.9132 11.1466 21.9132C11.4869 21.9132 11.8133 21.778 12.054 21.5373C12.2947 21.2967 12.4299 20.9702 12.4299 20.6299V12.9299H20.1299C20.4702 12.9299 20.7967 12.7947 21.0373 12.554C21.278 12.3133 21.4132 11.9869 21.4132 11.6466C21.4132 11.3062 21.278 10.9798 21.0373 10.7391C20.7967 10.4984 20.4702 10.3632 20.1299 10.3632Z" fill="#FFC300"/>
</svg>
