<svg width="30" height="30" viewBox="0 0 30 30" fill="none" xmlns="http://www.w3.org/2000/svg">
<circle cx="15" cy="15" r="14.5" fill="white" stroke="#E9E9E9"/>
<path d="M22.4702 14.0701H16.1702H14.0702H7.77021C7.49174 14.0701 7.22467 14.1807 7.02775 14.3776C6.83084 14.5745 6.72021 14.8416 6.72021 15.1201C6.72021 15.3985 6.83084 15.6656 7.02775 15.8625C7.22467 16.0594 7.49174 16.1701 7.77021 16.1701H14.0702H16.1702H22.4702C22.7487 16.1701 23.0158 16.0594 23.2127 15.8625C23.4096 15.6656 23.5202 15.3985 23.5202 15.1201C23.5202 14.8416 23.4096 14.5745 23.2127 14.3776C23.0158 14.1807 22.7487 14.0701 22.4702 14.0701Z" fill="#E9E9E9"/>
</svg>
