<svg width="30" height="30" viewBox="0 0 30 30" fill="none" xmlns="http://www.w3.org/2000/svg">
<circle cx="15" cy="15" r="14.5" fill="white" stroke="#FFC300"/>
<path d="M22.4702 14.07H16.1702V7.76997C16.1702 7.49149 16.0596 7.22442 15.8627 7.02751C15.6658 6.8306 15.3987 6.71997 15.1202 6.71997C14.8417 6.71997 14.5747 6.8306 14.3778 7.02751C14.1808 7.22442 14.0702 7.49149 14.0702 7.76997V14.07H7.77021C7.49174 14.07 7.22467 14.1806 7.02775 14.3775C6.83084 14.5744 6.72021 14.8415 6.72021 15.12C6.72021 15.3984 6.83084 15.6655 7.02775 15.8624C7.22467 16.0593 7.49174 16.17 7.77021 16.17H14.0702V22.47C14.0702 22.7484 14.1808 23.0155 14.3778 23.2124C14.5747 23.4093 14.8417 23.52 15.1202 23.52C15.3987 23.52 15.6658 23.4093 15.8627 23.2124C16.0596 23.0155 16.1702 22.7484 16.1702 22.47V16.17H22.4702C22.7487 16.17 23.0158 16.0593 23.2127 15.8624C23.4096 15.6655 23.5202 15.3984 23.5202 15.12C23.5202 14.8415 23.4096 14.5744 23.2127 14.3775C23.0158 14.1806 22.7487 14.07 22.4702 14.07Z" fill="#FFC300"/>
</svg>
