<svg width="120" height="120" viewBox="0 0 120 120" fill="none" xmlns="http://www.w3.org/2000/svg">
<path d="M100 30H89.1C89.65 28.45 90 26.75 90 25C90 16.7 83.3 10 75 10C69.75 10 65.2 12.7 62.5 16.75L60 20.1L57.5 16.7C54.8 12.7 50.25 10 45 10C36.7 10 30 16.7 30 25C30 26.75 30.35 28.45 30.9 30H20C14.45 30 10.05 34.45 10.05 40L10 95C10 100.55 14.45 105 20 105H100C105.55 105 110 100.55 110 95V40C110 34.45 105.55 30 100 30ZM75 20C77.75 20 80 22.25 80 25C80 27.75 77.75 30 75 30C72.25 30 70 27.75 70 25C70 22.25 72.25 20 75 20ZM45 20C47.75 20 50 22.25 50 25C50 27.75 47.75 30 45 30C42.25 30 40 27.75 40 25C40 22.25 42.25 20 45 20ZM100 95H20V85H100V95ZM100 70H20V40H45.4L35 54.15L43.1 60L55 43.8L60 37L65 43.8L76.9 60L85 54.15L74.6 40H100V70Z" fill="#FFC300"/>
</svg>
