<svg width="25" height="25" viewBox="0 0 25 25" fill="none" xmlns="http://www.w3.org/2000/svg">
<path d="M16.1978 13.5416C16.979 13.5416 17.6665 13.1146 18.0207 12.4687L21.7498 5.70831C22.1353 5.02081 21.6353 4.16665 20.8436 4.16665H5.42692L4.44775 2.08331H1.0415V4.16665H3.12484L6.87484 12.0729L5.46859 14.6146C4.70817 16.0104 5.70817 17.7083 7.2915 17.7083H19.7915V15.625H7.2915L8.43734 13.5416H16.1978ZM6.4165 6.24998H19.0728L16.1978 11.4583H8.88525L6.4165 6.24998ZM7.2915 18.75C6.14567 18.75 5.21859 19.6875 5.21859 20.8333C5.21859 21.9791 6.14567 22.9166 7.2915 22.9166C8.43734 22.9166 9.37484 21.9791 9.37484 20.8333C9.37484 19.6875 8.43734 18.75 7.2915 18.75ZM17.7082 18.75C16.5623 18.75 15.6353 19.6875 15.6353 20.8333C15.6353 21.9791 16.5623 22.9166 17.7082 22.9166C18.854 22.9166 19.7915 21.9791 19.7915 20.8333C19.7915 19.6875 18.854 18.75 17.7082 18.75Z" fill="black"/>
</svg>
