<svg width="25" height="25" viewBox="0 0 25 25" fill="none" xmlns="http://www.w3.org/2000/svg">
<path d="M12.5002 2.08331C8.46891 2.08331 5.2085 5.34373 5.2085 9.37498C5.2085 14.8437 12.5002 22.9166 12.5002 22.9166C12.5002 22.9166 19.7918 14.8437 19.7918 9.37498C19.7918 5.34373 16.5314 2.08331 12.5002 2.08331ZM7.29183 9.37498C7.29183 6.49998 9.62516 4.16665 12.5002 4.16665C15.3752 4.16665 17.7085 6.49998 17.7085 9.37498C17.7085 12.375 14.7085 16.8646 12.5002 19.6666C10.3335 16.8854 7.29183 12.3437 7.29183 9.37498Z" fill="#FFC300"/>
<path d="M12.5002 11.9791C13.9384 11.9791 15.1043 10.8132 15.1043 9.37498C15.1043 7.93674 13.9384 6.77081 12.5002 6.77081C11.0619 6.77081 9.896 7.93674 9.896 9.37498C9.896 10.8132 11.0619 11.9791 12.5002 11.9791Z" fill="#FFC300"/>
</svg>
