<svg width="25" height="25" viewBox="0 0 25 25" fill="none" xmlns="http://www.w3.org/2000/svg">
<path d="M18.7501 6.25H16.6667C16.6667 3.94791 14.8022 2.08333 12.5001 2.08333C10.198 2.08333 8.33341 3.94791 8.33341 6.25H6.25008C5.10425 6.25 4.16675 7.1875 4.16675 8.33333V20.8333C4.16675 21.9792 5.10425 22.9167 6.25008 22.9167H18.7501C19.8959 22.9167 20.8334 21.9792 20.8334 20.8333V8.33333C20.8334 7.1875 19.8959 6.25 18.7501 6.25ZM12.5001 4.16666C13.6459 4.16666 14.5834 5.10416 14.5834 6.25H10.4167C10.4167 5.10416 11.3542 4.16666 12.5001 4.16666ZM18.7501 20.8333H6.25008V8.33333H8.33341V10.4167C8.33341 10.9896 8.80216 11.4583 9.37508 11.4583C9.948 11.4583 10.4167 10.9896 10.4167 10.4167V8.33333H14.5834V10.4167C14.5834 10.9896 15.0522 11.4583 15.6251 11.4583C16.198 11.4583 16.6667 10.9896 16.6667 10.4167V8.33333H18.7501V20.8333Z" fill="black"/>
</svg>
